#!OML:ASF I:\golf\golf\golf 2\Subject 1\2002-09-07\Subject1.ASF
:FULLY-SPECIFIED
:DEGREES
227
root 1.10935 16.6442 -6.0428 29.3487 0.489328 -1.18204
lowerback 32.9462 6.64301 -2.41418
upperback 14.4179 7.69312 5.49741
thorax -2.0693 3.38638 4.58778
lowerneck -16.2312 -4.29171 -5.44723
upperneck 16.6132 -2.7683 -8.58274
head 7.82436 -2.4625 -2.27326
rclavicle -3.97569e-014 6.36111e-015
rhumerus 34.2836 10.7656 -62.406
rradius 34.037
rwrist -8.54529
rhand -35.6737 21.187
rfingers 7.12502
rthumb -8.79491 -8.60976
lclavicle -3.97569e-014 6.36111e-015
lhumerus 3.75995 -65.9765 61.8947
lradius 70.5599
lwrist -16.0357
lhand -49.1422 22.2256
lfingers 7.12502
lthumb -21.7656 51.0218
rfemur -65.2946 -14.4468 19.6932
rtibia 55.276
rfoot -10.6797 -8.83949
rtoes -15.2288
lfemur -69.3186 5.92936 -18.597
ltibia 48.205
lfoot -7.37098 -13.24
ltoes -5.30996
228
root 1.09737 16.6292 -6.01999 29.7286 0.578149 -1.05875
lowerback 33.1556 6.76845 -2.2828
upperback 14.7749 7.86428 5.6072
thorax -1.77648 3.45867 4.58513
lowerneck -16.167 -4.58154 -5.77355
upperneck 15.919 -3.18592 -8.3889
head 7.5835 -2.63456 -2.18373
rclavicle -6.36111e-015 3.37934e-014
rhumerus 35.6121 10.0567 -61.5045
rradius 33.5581
rwrist -8.56475
rhand -35.6213 21.2126
rfingers 7.12502
rthumb -8.7444 -8.58626
lclavicle -6.36111e-015 3.37934e-014
lhumerus 4.07084 -65.6395 61.7493
lradius 71.1726
lwrist -16.3997
lhand -49.3496 22.1399
lfingers 7.12502
lthumb -21.9647 50.9128
rfemur -65.8369 -14.5645 19.7358
rtibia 55.689
rfoot -11.0007 -9.0042
rtoes -15.0521
lfemur -69.8308 5.83889 -18.7251
ltibia 48.4511
lfoot -7.42675 -13.2391
ltoes -4.90169
229
root 1.06916 16.5874 -6.02249 30.7419 1.27332 -0.775631
lowerback 33.5946 6.68391 -2.12465
upperback 14.4174 7.82803 5.76029
thorax -2.32457 3.45014 4.61838
lowerneck -16.0355 -4.78013 -5.96605
upperneck 15.7412 -3.4519 -8.30191
head 7.503 -2.75369 -2.14544
rclavicle 6.36111e-015 1.59028e-014
rhumerus 36.3819 9.63604 -60.8417
rradius 33.0277
rwrist -8.38871
rhand -35.5555 21.1299
rfingers 7.12502
rthumb -8.68088 -8.67158
lclavicle 6.36111e-015 1.59028e-014
lhumerus 2.69273 -65.5026 62.9831
lradius 71.8931
lwrist -16.8983
lhand -49.7428 21.9051
lfingers 7.12502
lthumb -22.3422 50.6333
rfemur -67.2057 -15.0544 20.0487
rtibia 56.1356
rfoot -11.0528 -9.39302
rtoes -16.3692
lfemur -71.2879 5.48999 -18.9713
ltibia 48.6499
lfoot -7.14113 -13.7132
ltoes -4.49513
230
root 1.05879 16.5398 -6.01699 31.7322 1.73671 -0.61485
lowerback 33.339 6.58718 -1.8194
upperback 14.5409 7.80747 5.8976
thorax -2.08646 3.44674 4.63691
lowerneck -15.974 -5.01341 -6.23791
upperneck 15.221 -3.76813 -8.22477
head 7.32378 -2.8916 -2.0964
rclavicle -7.31528e-014 -5.56597e-015
rhumerus 37.6169 9.08124 -59.8859
rradius 32.5095
rwrist -8.31553
rhand -35.5656 21.1962
rfingers 7.12502
rthumb -8.69065 -8.60494
lclavicle -7.31528e-014 -5.56597e-015
lhumerus 2.47226 -65.1242 63.24
lradius 72.5332
lwrist -17.7477
lhand -50.0399 22.2616
lfingers 7.12502
lthumb -22.6274 50.9552
rfemur -68.5532 -15.4327 20.3815
rtibia 56.5283
rfoot -11.1257 -9.53657
rtoes -17.3577
lfemur -72.6551 5.1763 -19.0858
ltibia 48.8265
lfoot -6.91224 -13.9215
ltoes -4.531
231
root 1.03367 16.5381 -5.99739 31.9038 1.94939 -0.525398
lowerback 33.9919 6.759 -1.8483
upperback 14.7185 7.99964 6.11675
thorax -2.18194 3.52056 4.77821
lowerneck -15.632 -5.22347 -6.42188
upperneck 14.6069 -4.10941 -8.15256
head 7.06372 -3.02744 -2.05319
rclavicle -1.11319e-013 -1.07344e-014
rhumerus 38.5752 8.54404 -59.0367
rradius 32.0656
rwrist -8.03433
rhand -35.7028 21.1487
rfingers 7.12502
rthumb -8.82302 -8.64683
lclavicle -1.11319e-013 -1.07344e-014
lhumerus 2.04204 -64.8491 63.6775
lradius 73.1717
lwrist -18.4
lhand -50.0731 22.5572
lfingers 7.12502
lthumb -22.6593 51.247
rfemur -68.766 -15.5284 20.4061
rtibia 56.8621
rfoot -11.6263 -9.52847
rtoes -15.63
lfemur -72.8427 5.1717 -19.1689
ltibia 48.896
lfoot -6.99899 -14.128
ltoes -4.6351
232
root 1.01402 16.534 -5.98162 32.2814 2.225 -0.49786
lowerback 34.397 6.91723 -1.57104
upperback 14.8531 8.26178 6.23024
thorax -2.18703 3.64637 4.64383
lowerneck -15.2679 -5.52578 -6.32292
upperneck 14.047 -4.64398 -8.05418
head 6.808 -3.24031 -2.06467
rclavicle 3.81667e-014 9.93923e-015
rhumerus 39.3295 7.57984 -58.3967
rradius 31.5335
rwrist -7.45966
rhand -35.8311 21.1236
rfingers 7.12502
rthumb -8.94685 -8.66668
lclavicle 3.81667e-014 9.93923e-015
lhumerus 2.24389 -64.9192 63.4919
lradius 73.8757
lwrist -18.5689
lhand -50.3922 22.6878
lfingers 7.12502
lthumb -22.9655 51.3398
rfemur -69.26 -15.6424 20.5302
rtibia 57.169
rfoot -12.1308 -9.37715
rtoes -12.0471
lfemur -73.2716 5.12103 -19.1789
ltibia 48.932
lfoot -7.0227 -14.2997
ltoes -4.60691
